<svg xmlns="http://www.w3.org/2000/svg" width="80" height="80"><path fill="#444" d="M70 16c-4.7 0-7.7-5.3-7.9-5.5-.2-.3-.2-.7 0-1C62.3 9.3 65.2 4 70 4c4.7 0 7.7 5.3 7.9 5.5.2.3.2.7 0 1-.2.2-3.2 5.5-7.9 5.5zm-5.8-6c.8 1.2 3 4 5.8 4s5-2.8 5.8-4c-.8-1.2-3-4-5.8-4-2.9 0-5 2.8-5.8 4z"/><circle fill="#444" cx="70" cy="10" r="2"/><path fill="#96C03D" d="M70 36c-4.7 0-7.7-5.3-7.9-5.5-.2-.3-.2-.7 0-1 .1-.2 3.1-5.5 7.9-5.5 4.7 0 7.7 5.3 7.9 5.5.2.3.2.7 0 1-.2.2-3.2 5.5-7.9 5.5zm-5.8-6c.8 1.2 3 4 5.8 4s5-2.8 5.8-4c-.8-1.2-3-4-5.8-4-2.9 0-5 2.8-5.8 4z"/><circle fill="#96C03D" cx="70" cy="30" r="2"/><path fill="#FFF" d="M70 56c-4.7 0-7.7-5.3-7.9-5.5-.2-.3-.2-.7 0-1 .1-.2 3.1-5.5 7.9-5.5 4.7 0 7.7 5.3 7.9 5.5.2.3.2.7 0 1-.2.2-3.2 5.5-7.9 5.5zm-5.8-6c.8 1.2 3 4 5.8 4s5-2.8 5.8-4c-.8-1.2-3-4-5.8-4-2.9 0-5 2.8-5.8 4z"/><circle fill="#FFF" cx="70" cy="50" r="2"/><path fill="#FFF" d="M2 69.6L3.6 68l4 2.4 8.8-6.4 1.6 1.6L7.6 76z"/><path fill="#444" d="M15 14H6c-.5 0-.9-.4-1-.9L4.1 4H3c-.6 0-1-.4-1-1s.4-1 1-1h2c.5 0 .9.4 1 .9L6.2 5H16c.3 0 .6.1.8.3.1.3.2.6.2.8l-1 7c-.1.5-.5.9-1 .9zm-8.1-2h7.2l.7-5H6.4l.5 5z"/><circle fill="#444" cx="6.5" cy="16.5" r="1.5"/><circle fill="#444" cx="15.5" cy="16.5" r="1.5"/><path fill="#444" d="M36.7 6.3l-4-4c-.2-.2-.4-.3-.7-.3h-8c-.6 0-1 .4-1 1v14c0 .6.4 1 1 1h12c.6 0 1-.4 1-1V7c0-.3-.1-.5-.3-.7zm-2.1.7H32V4.4L34.6 7zM25 16V4h5v4c0 .6.4 1 1 1h4v7H25zM57 2H43c-.6 0-1 .4-1 1v14c0 .6.4 1 1 1h14c.6 0 1-.4 1-1V3c0-.6-.4-1-1-1zm-5 2v4.1l-1.4-1c-.2 0-.4-.1-.6-.1s-.4.1-.6.2l-1.4 1V4h4zm4 12H44V4h2v6c0 .4.2.7.5.9.3.2.7.2 1 0L50 9.2l2.4 1.6c.2.1.4.2.6.2.2 0 .3 0 .5-.1.3-.2.5-.5.5-.9V4h2v12z"/><path fill="#FFF" d="M15 54H6c-.5 0-.9-.4-1-.9L4.1 44H3c-.6 0-1-.4-1-1s.4-1 1-1h2c.5 0 .9.4 1 .9l.2 2.1H16c.3 0 .6.1.8.3.2.2.3.5.2.8l-1 7c-.1.5-.5.9-1 .9zm-8.1-2h7.2l.7-5H6.4l.5 5z"/><circle fill="#FFF" cx="6.5" cy="56.5" r="1.5"/><circle fill="#FFF" cx="15.5" cy="56.5" r="1.5"/><path fill="#FFF" d="M36.7 46.3l-4-4c-.2-.2-.4-.3-.7-.3h-8c-.6 0-1 .4-1 1v14c0 .6.4 1 1 1h12c.6 0 1-.4 1-1V47c0-.3-.1-.5-.3-.7zm-2.1.7H32v-2.6l2.6 2.6zM25 56V44h5v4c0 .6.4 1 1 1h4v7H25zm33-13c0-.6-.4-1-1-1H43c-.6 0-1 .4-1 1v14c0 .6.4 1 1 1h14c.6 0 1-.4 1-1V43zm-6 1v4.1l-1.4-1c-.2 0-.4-.1-.6-.1s-.4.1-.6.2l-1.4 1V44h4zm4 12H44V44h2v6c0 .4.2.7.5.9.3.2.7.2 1 0l2.4-1.6 2.4 1.6c.2.1.4.2.6.2.2 0 .3 0 .5-.1.3-.2.5-.5.5-.9v-6h2V56z"/><g fill="#96C03D"><path d="M15 34H6c-.5 0-.9-.4-1-.9L4.1 24H3c-.6 0-1-.4-1-1s.4-1 1-1h2c.5 0 .9.4 1 .9l.2 2.1H16c.3 0 .6.1.8.3.2.2.3.5.2.8l-1 7c-.1.5-.5.9-1 .9zm-8.1-2h7.2l.7-5H6.4l.5 5z"/><circle cx="6.5" cy="36.5" r="1.5"/><circle cx="15.5" cy="36.5" r="1.5"/></g><path fill="#96C03D" d="M36.7 26.3l-4-4c-.2-.2-.4-.3-.7-.3h-8c-.6 0-1 .4-1 1v14c0 .6.4 1 1 1h12c.6 0 1-.4 1-1V27c0-.3-.1-.5-.3-.7zm-2.1.7H32v-2.6l2.6 2.6zM25 36V24h5v4c0 .6.4 1 1 1h4v7H25zm32-14H43c-.6 0-1 .4-1 1v14c0 .6.4 1 1 1h14c.6 0 1-.4 1-1V23c0-.6-.4-1-1-1zm-5 2v4.1l-1.4-1c-.2 0-.4-.1-.6-.1s-.4.1-.6.2l-1.4 1V24h4zm4 12H44V24h2v6c0 .4.2.7.5.9.3.2.7.2 1 0l2.4-1.6 2.4 1.6c.2.1.4.2.6.2.2 0 .3 0 .5-.1.3-.2.5-.5.5-.9v-6h2V36z"/></svg>