<svg xmlns="http://www.w3.org/2000/svg" viewBox="0 0 420.592 420.592"><path d="M289.26 69.466c-7.677-36.192-29.611-60.868-39.482-65.803-22.209-11.104-29.611 6.58-39.482 6.58s-17.273-17.685-39.482-6.58c-9.87 4.935-31.805 29.611-39.482 65.803s78.964 6.58 78.964 6.58 86.641 29.612 78.964-6.58z" fill="#ffd24f"/><ellipse cx="210.296" cy="121.736" rx="151.347" ry="55.933" fill="#ffbe1e"/><path d="M121.247 162.233c-9.864-2.468-16.326 2.805-16.326 13.161 0 13.709 13.265 47.296 27.21 26.321s-10.884-39.482-10.884-39.482zm176.423 0c10.767-2.468 17.821 2.805 17.821 13.161 0 13.709-14.479 47.296-29.701 26.321s11.88-39.482 11.88-39.482z" fill="#ffe1b2"/><path d="M138.003 281.887c14.716-9.475 13.07-37.675 13.07-44.255h118.446c0 6.58-1.825 34.78 12.89 44.255l-72.113 80.771-72.293-80.771z" fill="#ffd7a3"/><path d="M256.358 310.016l26.051-28.129c-14.716-9.474-12.89-37.675-12.89-44.255H151.073c8.498 24.433 64.707 66.352 105.285 72.384z" fill="#fdc88e"/><path d="M361.643 420.592c10.903 0 19.741-8.838 19.741-19.741v-39.208c0-28.954-22.562-59.864-50.138-68.687l-41.168-13.173c-22.149 16.936-53.802 40.039-79.782 40.039s-57.633-23.103-79.782-40.039l-41.168 13.173c-27.576 8.823-50.138 39.733-50.138 68.687v39.208c0 10.903 8.838 19.741 19.741 19.741h302.694z" fill="#ff6953"/><path d="M380.955 404.922H370.74v-13.835h10.644v-10.074H370.74v-13.835h10.644v-5.536c0-1.508-.097-3.023-.217-4.538H370.74V343.27h7.738a75.084 75.084 0 0 0-3.884-10.074h-3.854v-7.216a82.77 82.77 0 0 0-13.224-16.693h-10.684v-8.691c-4.914-3.274-10.146-5.9-15.585-7.641l-23.681-7.578h-8.552v-2.737l-8.935-2.859c-.37.283-.763.58-1.139.866v4.73h-6.266c-5.527 4.126-11.465 8.395-17.643 12.487v11.422h-13.835v-2.902c-11.606 6.535-23.519 11.538-34.666 12.975h.684v13.835h-13.835v-13.835h.684c-11.148-1.437-23.061-6.441-34.667-12.976v2.902h-13.835v-11.422c-6.178-4.092-12.116-8.361-17.643-12.487h-6.266v-4.73c-.375-.286-.769-.583-1.139-.866l-8.935 2.859v2.737h-8.552l-23.681 7.578c-5.439 1.74-10.671 4.366-15.585 7.641v8.691H63.077a82.742 82.742 0 0 0-13.224 16.693v7.216h-3.854a75.303 75.303 0 0 0-3.884 10.074h7.738v13.835H39.425c-.12 1.515-.217 3.03-.217 4.538v5.536h10.644v13.835H39.208v10.074h10.644v13.835H39.638c.822 3.915 2.811 7.388 5.577 10.074h4.637v3.278c2.734 1.431 5.797 2.318 9.097 2.318h.978v-5.596h13.835v5.596h10.075v-5.596H97.67v5.596h10.074v-5.596h13.835v5.596h10.074v-5.596h13.835v5.596h10.074v-5.596h13.835v5.596h10.075v-5.596h13.835v5.596h10.074v-5.596h13.835v5.596h10.074v-5.596h13.835v5.596h10.074v-5.596h13.835v5.596h10.074v-5.596h13.835v5.596h10.074v-5.596h13.835v5.596h10.074v-5.596h13.835v5.596h10.075v-5.596h13.835v5.596h.978c3.3 0 6.363-.887 9.097-2.318v-3.278h4.637c2.76-2.686 4.75-6.159 5.572-10.074zm-307.194 0H59.926v-13.835h13.835v13.835zm0-23.908H59.926v-13.835h13.835v13.835zm0-23.909H59.926V343.27h13.835v13.835zm0-23.909H59.926v-13.835h13.835v13.835zm23.909 71.726H83.835v-13.835H97.67v13.835zm0-23.908H83.835v-13.835H97.67v13.835zm0-23.909H83.835V343.27H97.67v13.835zm0-23.909H83.835v-13.835H97.67v13.835zm0-23.909H83.835v-13.835H97.67v13.835zm23.909 95.635h-13.835v-13.835h13.835v13.835zm0-23.908h-13.835v-13.835h13.835v13.835zm0-23.909h-13.835V343.27h13.835v13.835zm0-23.909h-13.835v-13.835h13.835v13.835zm0-23.909h-13.835v-13.835h13.835v13.835zm23.908 95.635h-13.835v-13.835h13.835v13.835zm0-23.908h-13.835v-13.835h13.835v13.835zm0-23.909h-13.835V343.27h13.835v13.835zm0-23.909h-13.835v-13.835h13.835v13.835zm0-23.909h-13.835v-13.835h13.835v13.835zm23.909 95.635h-13.835v-13.835h13.835v13.835zm0-23.908h-13.835v-13.835h13.835v13.835zm0-23.909h-13.835V343.27h13.835v13.835zm0-23.909h-13.835v-13.835h13.835v13.835zm23.909 71.726H179.47v-13.835h13.835v13.835zm0-23.908H179.47v-13.835h13.835v13.835zm0-23.909H179.47V343.27h13.835v13.835zm0-23.909H179.47v-13.835h13.835v13.835zm23.908 71.726h-13.835v-13.835h13.835v13.835zm0-23.908h-13.835v-13.835h13.835v13.835zm0-23.909h-13.835V343.27h13.835v13.835zm23.909 47.817h-13.835v-13.835h13.835v13.835zm0-23.908h-13.835v-13.835h13.835v13.835zm0-23.909h-13.835V343.27h13.835v13.835zm0-23.909h-13.835v-13.835h13.835v13.835zm23.909 71.726h-13.835v-13.835h13.835v13.835zm0-23.908h-13.835v-13.835h13.835v13.835zm0-23.909h-13.835V343.27h13.835v13.835zm0-23.909h-13.835v-13.835h13.835v13.835zm23.909 71.726h-13.835v-13.835h13.835v13.835zm0-23.908h-13.835v-13.835h13.835v13.835zm0-23.909h-13.835V343.27h13.835v13.835zm0-23.909h-13.835v-13.835h13.835v13.835zm0-23.909h-13.835v-13.835h13.835v13.835zm23.908 95.635h-13.835v-13.835h13.835v13.835zm0-23.908h-13.835v-13.835h13.835v13.835zm0-23.909h-13.835V343.27h13.835v13.835zm0-23.909h-13.835v-13.835h13.835v13.835zm0-23.909h-13.835v-13.835h13.835v13.835zm23.909 95.635h-13.835v-13.835h13.835v13.835zm0-23.908h-13.835v-13.835h13.835v13.835zm0-23.909h-13.835V343.27h13.835v13.835zm0-23.909h-13.835v-13.835h13.835v13.835zm0-23.909h-13.835v-13.835h13.835v13.835zm23.909 95.635h-13.835v-13.835h13.835v13.835zm0-23.908h-13.835v-13.835h13.835v13.835zm0-23.909h-13.835V343.27h13.835v13.835zm0-23.909h-13.835v-13.835h13.835v13.835z" fill="#e95f43"/><path d="M210.296 319.821l-27.456 27.456c-2.859 2.859-7.596 2.487-9.975-.783l-48.113-66.156 15.326-15.326a6.58 6.58 0 0 1 9.055-.238l61.163 55.047z" fill="#ffbe1e"/><path d="M210.296 319.821l27.456 27.456c2.859 2.859 7.596 2.487 9.975-.783l48.113-66.156-15.326-15.326a6.58 6.58 0 0 0-9.055-.238l-61.163 55.047z" fill="#ffbe1e"/><path d="M122.275 117.737c-1.539 9.309-1.623 20.502-1.623 33.803 0 52.696 29.526 118.446 89.645 118.446s89.645-65.75 89.645-118.446c0-13.302-.084-24.494-1.623-33.803-24.117-8.127-54.708-13-88.021-13s-63.907 4.872-88.023 13z" fill="#ffe1b2"/><path d="M300.278 128.382a968.323 968.323 0 0 0-10.916-13.704v6.58c1.632 59.634-19.588 85.544-19.588 85.544l-27.038 3.027a285.098 285.098 0 0 1-63.452 0l-27.038-3.027s-21.22-25.91-19.588-85.544v-6.58s-5.649 6.944-10.916 13.704c-1.372 5.869-3.571 12.25-3.571 19.254 0 52.696 31.536 128.671 92.839 128.671s91.41-75.975 91.41-128.671c.001-7.004-.769-13.385-2.142-19.254zm-108.856 94.049h39.176c5.371 0 9.976 3.273 11.982 7.944-7.233 3.172-18.335 5.216-30.849 5.216-13.213 0-24.826-2.284-31.995-5.765 2.126-4.364 6.536-7.395 11.686-7.395z" fill="#a7795e"/><path d="M213.792 216.577c0-8.689-8.431-10.656-13.983-8.55-10.179 3.861-21.386 14.632-30.845 7.971 0 0 3.29 13.903 8.841 13.903 11.104-.001 35.987 1.448 35.987-13.324z" fill="#543d38"/><path d="M211.131 216.577c0-8.689 8.431-10.656 13.983-8.55 10.179 3.861 21.386 14.632 30.845 7.971 0 0-3.29 13.903-8.841 13.903-11.104-.001-35.987 1.448-35.987-13.324z" fill="#543d38"/><path d="M322.162 289.191l-26.321-8.423v80.969c0 3.012-1.999 5.675-4.923 6.395-22.275 5.486-50.216 8.77-80.621 8.77s-58.346-3.284-80.621-8.77c-2.925-.72-4.923-3.383-4.923-6.395v-80.969l-26.321 8.423v131.401h223.731V289.191z" fill="#c55f54"/><path d="M118.613 163.084l17.769 3.276s6.939-38.912 10.659-55.078c-9.705 1.937-18.858 4.267-27.202 7.003-1.582 9.309-1.668 20.502-1.668 33.803.001 3.612.157 7.288.442 10.996zm183.366 0l-17.769 3.276s-6.939-38.912-10.659-55.078c9.705 1.937 18.858 4.267 27.202 7.003 1.582 9.309 1.668 20.502 1.668 33.803 0 3.612-.157 7.288-.442 10.996zm-53.023-35.727l15.789-17.973c-16.762-2.964-35.121-4.647-54.449-4.647-11.763 0-23.16.637-34.079 1.781 10.322-.706 50.941 4.764 72.739 20.839z" fill="#543d38"/></svg>