<svg xmlns="http://www.w3.org/2000/svg" width="80" height="80"><path fill="#444" d="M70 16c-4.7 0-7.7-5.3-7.9-5.5-.2-.3-.2-.7 0-1C62.3 9.3 65.2 4 70 4c4.7 0 7.7 5.3 7.9 5.5.2.3.2.7 0 1-.2.2-3.2 5.5-7.9 5.5zm-5.8-6c.8 1.2 3 4 5.8 4s5-2.8 5.8-4c-.8-1.2-3-4-5.8-4-2.9 0-5 2.8-5.8 4z"/><circle fill="#444" cx="70" cy="10" r="2"/><path fill="#444" d="M16 18h-4c-.6 0-1-.4-1-1v-3H9v3c0 .6-.4 1-1 1H4c-.6 0-1-.4-1-1V8c0-.3.1-.6.4-.8l6-5c.4-.3.9-.3 1.3 0l6 5c.2.2.3.5.3.8v9c0 .6-.4 1-1 1zm-3-2h2V8.5l-5-4.2-5 4.2V16h2v-3c0-.6.4-1 1-1h4c.6 0 1 .4 1 1v3z"/><circle fill="#444" cx="48" cy="10" r="2"/><path fill="#444" d="M52 16h-4c-3.3 0-6-2.7-6-6s2.7-6 6-6h4c3.3 0 6 2.7 6 6s-2.7 6-6 6zM48 6c-2.2 0-4 1.8-4 4s1.8 4 4 4h4c2.2 0 4-1.8 4-4s-1.8-4-4-4h-4zM28 9h-5c-.6 0-1-.4-1-1V3c0-.6.4-1 1-1h5c.6 0 1 .4 1 1v5c0 .6-.4 1-1 1zm-4-2h3V4h-3v3zm13 2h-5c-.6 0-1-.4-1-1V3c0-.6.4-1 1-1h5c.6 0 1 .4 1 1v5c0 .6-.4 1-1 1zm-4-2h3V4h-3v3zm-5 11h-5c-.6 0-1-.4-1-1v-5c0-.6.4-1 1-1h5c.6 0 1 .4 1 1v5c0 .6-.4 1-1 1zm-4-2h3v-3h-3v3zm13 2h-5c-.6 0-1-.4-1-1v-5c0-.6.4-1 1-1h5c.6 0 1 .4 1 1v5c0 .6-.4 1-1 1zm-4-2h3v-3h-3v3z"/><path fill="#96C03D" d="M70 36c-4.7 0-7.7-5.3-7.9-5.5-.2-.3-.2-.7 0-1 .1-.2 3.1-5.5 7.9-5.5 4.7 0 7.7 5.3 7.9 5.5.2.3.2.7 0 1-.2.2-3.2 5.5-7.9 5.5zm-5.8-6c.8 1.2 3 4 5.8 4s5-2.8 5.8-4c-.8-1.2-3-4-5.8-4-2.9 0-5 2.8-5.8 4z"/><circle fill="#96C03D" cx="70" cy="30" r="2"/><path fill="#96C03D" d="M16 38h-4c-.6 0-1-.4-1-1v-3H9v3c0 .6-.4 1-1 1H4c-.6 0-1-.4-1-1v-9c0-.3.1-.6.4-.8l6-5c.4-.3.9-.3 1.3 0l6 5c.2.2.4.5.4.8v9c-.1.6-.5 1-1.1 1zm-3-2h2v-7.5l-5-4.2-5 4.2V36h2v-3c0-.6.4-1 1-1h4c.6 0 1 .4 1 1v3z"/><circle fill="#96C03D" cx="48" cy="30" r="2"/><path fill="#96C03D" d="M52 36h-4c-3.3 0-6-2.7-6-6s2.7-6 6-6h4c3.3 0 6 2.7 6 6s-2.7 6-6 6zm-4-10c-2.2 0-4 1.8-4 4s1.8 4 4 4h4c2.2 0 4-1.8 4-4s-1.8-4-4-4h-4zm-20 3h-5c-.6 0-1-.4-1-1v-5c0-.6.4-1 1-1h5c.6 0 1 .4 1 1v5c0 .6-.4 1-1 1zm-4-2h3v-3h-3v3zm13 2h-5c-.6 0-1-.4-1-1v-5c0-.6.4-1 1-1h5c.6 0 1 .4 1 1v5c0 .6-.4 1-1 1zm-4-2h3v-3h-3v3zm-5 11h-5c-.6 0-1-.4-1-1v-5c0-.6.4-1 1-1h5c.6 0 1 .4 1 1v5c0 .6-.4 1-1 1zm-4-2h3v-3h-3v3zm13 2h-5c-.6 0-1-.4-1-1v-5c0-.6.4-1 1-1h5c.6 0 1 .4 1 1v5c0 .6-.4 1-1 1zm-4-2h3v-3h-3v3z"/><path fill="#FFF" d="M70 56c-4.7 0-7.7-5.3-7.9-5.5-.2-.3-.2-.7 0-1 .1-.2 3.1-5.5 7.9-5.5 4.7 0 7.7 5.3 7.9 5.5.2.3.2.7 0 1-.2.2-3.2 5.5-7.9 5.5zm-5.8-6c.8 1.2 3 4 5.8 4s5-2.8 5.8-4c-.8-1.2-3-4-5.8-4-2.9 0-5 2.8-5.8 4z"/><circle fill="#FFF" cx="70" cy="50" r="2"/><path fill="#FFF" d="M16 58h-4c-.6 0-1-.4-1-1v-3H9v3c0 .6-.4 1-1 1H4c-.6 0-1-.4-1-1v-9c0-.3.1-.6.4-.8l6-5c.4-.3.9-.3 1.3 0l6 5c.2.2.4.5.4.8v9c-.1.6-.5 1-1.1 1zm-3-2h2v-7.5l-5-4.2-5 4.2V56h2v-3c0-.6.4-1 1-1h4c.6 0 1 .4 1 1v3z"/><circle fill="#FFF" cx="48" cy="50" r="2"/><path fill="#FFF" d="M52 56h-4c-3.3 0-6-2.7-6-6s2.7-6 6-6h4c3.3 0 6 2.7 6 6s-2.7 6-6 6zm-4-10c-2.2 0-4 1.8-4 4s1.8 4 4 4h4c2.2 0 4-1.8 4-4s-1.8-4-4-4h-4zm-20 3h-5c-.6 0-1-.4-1-1v-5c0-.6.4-1 1-1h5c.6 0 1 .4 1 1v5c0 .6-.4 1-1 1zm-4-2h3v-3h-3v3zm13 2h-5c-.6 0-1-.4-1-1v-5c0-.6.4-1 1-1h5c.6 0 1 .4 1 1v5c0 .6-.4 1-1 1zm-4-2h3v-3h-3v3zm-5 11h-5c-.6 0-1-.4-1-1v-5c0-.6.4-1 1-1h5c.6 0 1 .4 1 1v5c0 .6-.4 1-1 1zm-4-2h3v-3h-3v3zm13 2h-5c-.6 0-1-.4-1-1v-5c0-.6.4-1 1-1h5c.6 0 1 .4 1 1v5c0 .6-.4 1-1 1zm-4-2h3v-3h-3v3zM2 69.6L3.6 68l4 2.4 8.8-6.4 1.6 1.6L7.6 76z"/></svg>