<svg xmlns="http://www.w3.org/2000/svg" viewBox="0 0 421.141 421.141"><path d="M121.521 138.187c-9.864-2.468-16.326 2.805-16.326 13.161 0 13.709 13.265 47.296 27.21 26.321s-10.884-39.482-10.884-39.482zm176.423 0c10.767-2.468 17.821 2.805 17.821 13.161 0 13.709-14.479 47.296-29.701 26.321s11.88-39.482 11.88-39.482z" fill="#ffe1b2"/><path d="M138.187 261.405c14.716-9.475 13.07-37.675 13.07-44.255h118.446c0 6.58-1.825 34.78 12.89 44.255l-72.113 80.771-72.293-80.771z" fill="#ffd7a3"/><path d="M256.542 289.534l26.051-28.129c-14.716-9.474-12.89-37.675-12.89-44.255H151.257c8.498 24.433 64.707 66.352 105.285 72.384z" fill="#fdc88e"/><path d="M302.605 131.606c0 52.696-30.343 118.446-92.124 118.446s-92.124-65.75-92.124-118.446 41.246-72.384 92.124-72.384 92.124 19.688 92.124 72.384z" fill="#ffe1b2"/><path d="M300.536 112.352c-5.308-6.759-11.001-13.704-11.001-13.704v6.58c1.645 59.634-19.741 85.544-19.741 85.544l-27.249 3.027a289.559 289.559 0 0 1-63.948 0l-27.249-3.027s-21.386-25.91-19.741-85.544v-6.58s-5.694 6.944-11.001 13.704c-1.383 5.869-2.159 12.25-2.159 19.254 0 52.696 30.343 118.446 92.124 118.446s92.124-65.75 92.124-118.446c0-7.004-.776-13.385-2.159-19.254zm-70.225 120.371c-7.268 0-13.161-5.892-13.161-13.161h-13.16c0 7.268-5.892 13.161-13.161 13.161s-13.161-5.892-13.161-13.161c0-7.269 5.892-13.161 13.161-13.161h39.482c7.268 0 13.161 5.892 13.161 13.161 0 7.268-5.892 13.161-13.161 13.161z" fill="#dec5a9"/><path d="M138.097 110.632c-2.742 7.129-6.58 39.482-6.58 39.482l-13.161-6.58-3.701-43.595 23.442 10.693zm144.767 0c2.742 7.129 6.58 39.482 6.58 39.482l13.161-6.58 3.701-43.595-23.442 10.693z" fill="#7e5449"/><path d="M289.444 36.996V26.332a6.591 6.591 0 0 0-6.591-6.591h-6.559c-1.687 0-3.189.682-4.354 1.724-13.296-8.392-29.641-12.953-48.299-14.35v-.524A6.591 6.591 0 0 0 217.05 0h-13.139a6.591 6.591 0 0 0-6.591 6.591v.524c-18.776 1.41-35.062 6.028-48.272 14.368-1.169-1.055-2.683-1.742-4.382-1.742h-6.559a6.591 6.591 0 0 0-6.591 6.591v10.676c-12.659 15.711-19.741 38.002-19.741 68.278v13.161h197.41v-13.161c0-30.458-7.16-52.673-19.741-68.29z" fill="#ffbe1e"/><path d="M112.312 92.124H308.65c-.536-7.083-1.514-13.653-2.904-19.741H115.219c-1.392 6.097-2.372 12.668-2.907 19.741z" fill="#545465"/><path d="M210.48 92.124c-42.13 0-105.179 11.784-105.179 26.321H315.66c-.001-14.536-63.049-26.321-105.18-26.321z" fill="#fc9b28"/><circle cx="210.57" cy="65.803" r="39.482" fill="#545465"/><circle cx="210.57" cy="65.803" r="26.321" fill="#d0d7dc"/><circle cx="210.57" cy="65.803" r="13.161" fill="#e4ebf0"/><path d="M361.918 421.141c10.903 0 19.741-8.838 19.741-19.741v-62.722c0-28.954-22.562-59.864-50.138-68.687l-41.168-13.173c-22.149 16.936-53.802 40.039-79.782 40.039s-57.633-23.103-79.782-40.039L89.62 269.99c-27.576 8.823-50.138 39.733-50.138 68.687V401.4c0 10.903 8.838 19.741 19.741 19.741h302.695z" fill="#7c828d"/><path d="M273.47 269.309c-19.747 13.967-42.983 27.546-62.9 27.546-17.444 0-37.435-10.423-55.399-22.394l-3.824 1.912 46.062 144.767h26.321l52.643-151.347-2.903-.484z" fill="#545465"/><path d="M158.094 276.373L203.99 421.14h-26.321l-61.768-94.669a6.58 6.58 0 0 1-.611-8.601l16.317-21.756-33.95-11.317c-3.25-1.083-5.137-4.443-4.326-7.771 3.657-15.002 17.009-53.296 58.016-53.296 0 13.061 2.284 40.37 6.747 52.643zm104.953 0L217.151 421.14h26.321l61.768-94.669a6.58 6.58 0 0 0 .611-8.601l-16.317-21.756 33.95-11.317c3.25-1.083 5.137-4.443 4.326-7.771-3.657-15.002-17.009-53.296-58.016-53.296-.001 13.061-2.284 40.37-6.747 52.643z" fill="#6e6e79"/></svg>