<svg xmlns="http://www.w3.org/2000/svg" width="24" height="32"><path d="M13.1 13c1 0 1.8.8 1.8 1.8s-.8 1.8-1.8 1.8-1.8-.8-1.8-1.8.9-1.8 1.8-1.8z" fill="#bab388"/><path fill="#e59784" d="M20 21.7v4.9h-5.8l-3.1-4.7 5.3-4.2z"/><path fill="#e1bab5" d="M11.1 21.9l3.1 4.7H4v-4l4.3-5.2z"/><path d="M20 11.1v10.6l-3.6-4-5.3 4.1-2.9-4.4L4 22.6V11.1h16zm-5.1 3.7c0-1-.8-1.8-1.8-1.8s-1.8.8-1.8 1.8.8 1.8 1.8 1.8 1.8-.8 1.8-1.8z" fill="#b6ccdf"/><path fill="#a9a69a" d="M23.5 7.8h-6.2V1.6z"/><path d="M23.5 7.8v22.5H.5V1.6h16.8v6.2h6.2zM20 26.6V11.1H4v15.5h16z" fill="#e3e1d0"/></svg>