<svg xmlns="http://www.w3.org/2000/svg" viewBox="0 0 420.316 420.316"><path d="M331.109 288.907l-45.115-10.939c-6.856-1.663-12.47-6.809-14.307-13.621-2.988-11.078-2.305-23.457-2.305-27.538H150.935c0 4.097.619 16.558-2.463 27.67-1.875 6.763-7.459 11.866-14.279 13.52l-44.986 10.908c-27.576 8.823-50.138 39.733-50.138 68.687v42.982c0 10.903 8.838 19.741 19.741 19.741h302.695c10.903 0 19.741-8.838 19.741-19.741v-42.982c.001-28.955-22.561-59.864-50.137-68.687z" fill="#455465"/><path d="M289.122 71.349c-7.677-30.745-29.611-48.651-39.482-52.843-22.209-9.433-56.755-9.433-78.964 0-9.87 4.193-31.805 22.098-39.482 52.843s78.964 5.59 78.964 5.59 86.641 25.155 78.964-5.59z" fill="#ffb422"/><path d="M232.125 7.07L214.609.775a13.161 13.161 0 0 0-8.902 0L188.192 7.07a6.58 6.58 0 0 0-4.355 6.193v117.52h52.643V13.263a6.582 6.582 0 0 0-4.355-6.193z" fill="#ffbe1e"/><ellipse cx="210.158" cy="120.912" rx="165.331" ry="55.933" fill="#fc9b28"/><path d="M119.702 117.461c-1.582 9.309-1.668 20.502-1.668 33.803 0 52.696 30.343 118.446 92.124 118.446s92.124-65.75 92.124-118.446c0-13.302-.086-24.494-1.668-33.803-24.784-8.127-56.221-13-90.457-13s-65.671 4.873-90.455 13z" fill="#6e6e79"/><path d="M119.702 117.461c-1.582 9.309-1.668 20.502-1.668 33.803 0 52.696 30.343 118.446 92.124 118.446s92.124-65.75 92.124-118.446c0-13.302-.086-24.494-1.668-33.803-24.784-8.127-56.221-13-90.457-13s-65.671 4.873-90.455 13z" fill="#29394a"/><path d="M210.158 114.332c28.852 0 57.109 3.668 80.485 10.39-.831 22.376-7.055 69.787-43.03 95.55-9.883-9.809-23.322-15.461-37.455-15.461-14.115 0-27.54 5.64-37.419 15.425-16.316-11.881-41.593-39.288-43.105-95.504 23.384-6.728 51.657-10.4 80.524-10.4" fill="#e4ebf0"/><path d="M210.158 114.332c28.852 0 57.109 3.668 80.485 10.39-.831 22.376-7.055 69.787-43.03 95.55-9.883-9.809-23.322-15.461-37.455-15.461-14.115 0-27.54 5.64-37.419 15.425-16.316-11.881-41.593-39.288-43.105-95.504 23.384-6.728 51.657-10.4 80.524-10.4m0-9.871c-34.235 0-65.673 4.873-90.457 13-.663 73.559 37.007 105.407 54.934 115.787 7.829-11.214 20.809-18.566 35.523-18.566 14.715 0 27.696 7.353 35.525 18.569 17.921-10.374 55.585-42.211 54.937-115.744-.002-.014-.003-.031-.006-.045-24.783-8.128-56.22-13.001-90.456-13.001z" fill="#7c828d"/><path fill="#ffbe1e" d="M39.07 368.394h342.177v27.69H39.07z"/><path d="M331.109 288.907l-28.826-6.99c0 67.784 33.862 86.476 33.862 86.476v-77.606a58.345 58.345 0 0 0-5.036-1.88zm-241.901 0l28.826-6.99c0 67.784-33.862 86.476-33.862 86.476v-77.606a58.222 58.222 0 0 1 5.036-1.88z" fill="#29394a"/><path fill="#d0d7dc" d="M230.763 248.905h24.361v18.193h-24.361z"/><circle cx="210.158" cy="258.002" r="32.785" fill="#7c828d"/><circle cx="210.158" cy="258.002" r="20.838" fill="#d0d7dc"/><path d="M308.349 283.388l22.759 5.518c2.007.642 3.978 1.434 5.925 2.301-2.075-43.654-49.959-46.21-77.276-46.359a4.6 4.6 0 0 0-4.633 4.609v17.135c0 2.529 2.072 4.565 4.601 4.599 31.957.429 44.109 5.4 48.624 12.197z" fill="#7c828d"/><circle cx="210.158" cy="350.401" r="6.58" fill="#29394a"/><circle cx="210.158" cy="317.499" r="6.58" fill="#29394a"/><circle cx="210.158" cy="383.302" r="6.58" fill="#29394a"/><path d="M129.634 124.733c1.511 56.215 26.789 83.623 43.104 95.504 9.879-9.786 23.305-15.425 37.42-15.425v-90.479c-28.867-.001-57.14 3.671-80.524 10.4z" fill="#d0d7dc"/></svg>