<svg xmlns="http://www.w3.org/2000/svg" viewBox="0 0 421.14 421.14"><path d="M289.534 69.466c-7.677-36.192-29.611-60.868-39.482-65.803-22.209-11.104-29.611 6.58-39.482 6.58-9.87 0-17.273-17.685-39.482-6.58-9.87 4.935-31.805 29.611-39.482 65.803s78.964 6.58 78.964 6.58 86.641 29.612 78.964-6.58z" fill="#ffefe4"/><path d="M138.277 281.887c14.716-9.475 13.07-37.675 13.07-44.255h118.446c0 6.58-1.825 34.78 12.89 44.255l-72.113 80.771-72.293-80.771z" fill="#ffd7a3"/><path d="M256.632 310.016l26.051-28.129c-14.716-9.474-12.89-37.675-12.89-44.255H151.347c8.498 24.433 64.707 66.352 105.285 72.384z" fill="#fdc88e"/><path d="M302.695 152.088c0 52.696-30.343 118.446-92.124 118.446s-92.124-65.75-92.124-118.446 41.246-72.384 92.124-72.384 92.124 19.688 92.124 72.384z" fill="#ffe1b2"/><path d="M217.151 92.124c-10.282 2.879-105.285 19.741-105.285 19.741l5.476 10.952 1.104 28.53v19.741l13.161 7.321s.411-23.361 6.58-40.223c29.715-3.957 130.312-18.447 144.767-32.902 17.273-17.272-55.522-16.038-65.803-13.16z" fill="#545465"/><path d="M121.521 163.604c-9.864-2.468-16.326 2.805-16.326 13.161 0 13.709 13.265 47.296 27.21 26.321s-10.884-39.482-10.884-39.482zm176.423 0c10.767-2.468 17.821 2.805 17.821 13.161 0 13.709-14.479 47.296-29.701 26.321s11.88-39.482 11.88-39.482z" fill="#ffe1b2"/><path d="M361.918 421.14c10.903 0 19.741-8.838 19.741-19.741v-42.981c0-28.954-22.562-59.864-50.138-68.687l-41.168-13.173c-22.149 16.936-53.802 40.039-79.782 40.039s-57.633-23.103-79.782-40.039L89.62 289.731c-27.576 8.823-50.138 39.733-50.138 68.687v42.981c0 10.903 8.838 19.741 19.741 19.741h302.695z" fill="#e3a274"/><path d="M223.731 336.337c0 3.619-2.961 6.58-6.58 6.58H203.99c-3.619 0-6.58-2.961-6.58-6.58v-13.161c0-3.619 2.961-6.58 6.58-6.58h13.161c3.619 0 6.58 2.961 6.58 6.58v13.161z" fill="#914f38"/><path d="M217.151 375.078c0 3.634-2.946 19.741-6.58 19.741s-6.58-16.107-6.58-19.741a6.58 6.58 0 0 1 13.16 0z" fill="#d0d7dc"/><path d="M210.57 316.596l-27.456 27.456c-2.859 2.859-7.596 2.487-9.975-.783l-48.113-66.156 15.326-15.326a6.58 6.58 0 0 1 9.055-.238l61.163 55.047z" fill="#d18f5d"/><path d="M210.57 316.596l27.456 27.456c2.859 2.859 7.596 2.487 9.975-.783l48.113-66.156-15.326-15.326a6.58 6.58 0 0 0-9.055-.238l-61.163 55.047z" fill="#d18f5d"/><path fill="#914f38" d="M219.611 339.216l-9.041 3.702-9.04-3.702-4.12 81.924h26.321z"/><path d="M158.697 395.56h-45.662c-5.451 0-9.87 4.42-9.87 9.87v15.71h65.403v-15.71c0-5.451-4.419-9.87-9.871-9.87zm149.228 0h-45.661c-5.451 0-9.87 4.42-9.87 9.87v15.71h65.402v-15.71c-.001-5.451-4.42-9.87-9.871-9.87z" fill="#d18f5d"/><path d="M276.373 105.285c2.742 8.089 13.161 73.124 13.161 73.124l13.161-7.467v-65.657h-26.322z" fill="#545465"/><ellipse cx="210.57" cy="78.964" rx="85.544" ry="19.741" fill="#914f38"/><path d="M336.096 59.223c-24.044-12.474-75.126 19.741-125.601 19.741S109.099 46.749 85.055 59.223c-32.169 16.689-29.382 55.04-17.918 73.739 1.12 2.252 2.772 4.305 4.858 6.232.043.042.083.1.126.141.023.022.045.028.068.049 7.68 6.958 28.486 12.168 46.409 18.273-.079-1.867-.152-3.732-.152-5.569 0-15.132 3.492-27.459 9.546-37.463 21.339-5.772 50.442-9.34 82.579-9.34s61.239 3.568 82.579 9.34c6.053 10.004 9.546 22.331 9.546 37.463 0 1.837-.073 3.702-.152 5.569 17.43-5.938 37.842-11.028 45.634-17.703.285-.228.566-.346.853-.619.38-.362.734-.832 1.104-1.234.399-.413.772-.835 1.129-1.261.267-.328.535-.645.796-.992.31-.415.59-.841.861-1.27 12.337-17.991 16.329-58.155-16.825-75.355z" fill="#ffefe4"/><ellipse cx="210.57" cy="36.192" rx="13.161" ry="16.451" fill="#ffd267"/><ellipse cx="286.244" cy="348.757" rx="16.451" ry="19.741" fill="#ffd267"/></svg>